<svg version="1.1" xmlns="http://www.w3.org/2000/svg" xmlns:xlink="http://www.w3.org/1999/xlink" width="374.7159" height="83.41035" viewBox="0,0,374.7159,83.41035"><defs><linearGradient x1="93.67214" y1="144.46662" x2="93.67214" y2="214.70155" gradientUnits="userSpaceOnUse" id="color-1"><stop offset="0" stop-color="#00add0"/><stop offset="1" stop-color="#0066d4"/></linearGradient><linearGradient x1="93.67214" y1="144.46662" x2="93.67214" y2="214.70155" gradientUnits="userSpaceOnUse" id="color-2"><stop offset="0" stop-color="#00add0"/><stop offset="1" stop-color="#0066d4"/></linearGradient><linearGradient x1="189.42891" y1="145.29845" x2="189.42891" y2="215.53338" gradientUnits="userSpaceOnUse" id="color-3"><stop offset="0" stop-color="#00add0"/><stop offset="1" stop-color="#0066d4"/></linearGradient><linearGradient x1="189.42891" y1="145.29845" x2="189.42891" y2="215.53338" gradientUnits="userSpaceOnUse" id="color-4"><stop offset="0" stop-color="#00add0"/><stop offset="1" stop-color="#0066d4"/></linearGradient><linearGradient x1="278.42501" y1="145.47112" x2="278.42501" y2="214.38889" gradientUnits="userSpaceOnUse" id="color-5"><stop offset="0" stop-color="#00add0"/><stop offset="1" stop-color="#0067d4"/></linearGradient><linearGradient x1="278.42501" y1="145.47112" x2="278.42501" y2="214.38889" gradientUnits="userSpaceOnUse" id="color-6"><stop offset="0" stop-color="#00add0"/><stop offset="1" stop-color="#0067d4"/></linearGradient><linearGradient x1="279.29231" y1="144.79998" x2="279.29231" y2="176.99444" gradientUnits="userSpaceOnUse" id="color-7"><stop offset="0" stop-color="#00add0"/><stop offset="1" stop-color="#0087d2"/></linearGradient><linearGradient x1="279.29231" y1="144.79998" x2="279.29231" y2="176.99444" gradientUnits="userSpaceOnUse" id="color-8"><stop offset="0" stop-color="#00add0"/><stop offset="1" stop-color="#0087d2"/></linearGradient><linearGradient x1="349.12865" y1="146.73178" x2="349.12865" y2="215.07636" gradientUnits="userSpaceOnUse" id="color-9"><stop offset="0" stop-color="#00add0"/><stop offset="1" stop-color="#0066d4"/></linearGradient><linearGradient x1="349.12865" y1="146.73178" x2="349.12865" y2="215.07636" gradientUnits="userSpaceOnUse" id="color-10"><stop offset="0" stop-color="#00add0"/><stop offset="1" stop-color="#0066d4"/></linearGradient><linearGradient x1="405.60796" y1="182.5" x2="405.60796" y2="214" gradientUnits="userSpaceOnUse" id="color-11"><stop offset="0" stop-color="#00add0"/><stop offset="1" stop-color="#0066d4"/></linearGradient><linearGradient x1="405.60796" y1="182.5" x2="405.60796" y2="214" gradientUnits="userSpaceOnUse" id="color-12"><stop offset="0" stop-color="#00add0"/><stop offset="1" stop-color="#0066d4"/></linearGradient></defs><g transform="translate(-52.64206,-138.21681)"><g data-paper-data="{&quot;isPaintingLayer&quot;:true}" fill-rule="nonzero" stroke-width="12.5" stroke-linejoin="miter" stroke-miterlimit="10" stroke-dasharray="" stroke-dashoffset="0" style="mix-blend-mode: normal"><g><path d="M128.29997,214.5343c-7.09504,-0.11296 -19.41612,0.51062 -33.73194,-0.11768c-26.09159,-1.14512 -35.88504,-20.96276 -35.6726,-33.41565c0.36644,-21.48037 16.15711,-36.47995 33.97878,-36.53416c17.81672,-0.05418 35.20497,11.0208 35.50395,31.87243c0.21682,15.12167 -0.11138,38.20609 -0.11138,38.20609" fill="url(#color-1)" stroke="url(#color-2)" stroke-linecap="round"/><path d="M154.83426,215.37716c0,0 -0.3282,-23.08442 -0.11138,-38.20609c0.29898,-20.85163 17.68723,-31.92661 35.50395,-31.87243c6.17008,0.01877 19.14604,0.28634 26.823,0.45577c3.61583,0.0798 6.16445,3.12885 6.31401,7.48406c0.28627,8.33629 0.72366,21.67063 0.84177,28.59433c0.21244,12.45289 -9.58101,32.27053 -35.6726,33.41565c-14.31582,0.6283 -26.6369,0.00472 -33.73194,0.11768" data-paper-data="{&quot;index&quot;:null}" fill="url(#color-3)" stroke="url(#color-4)" stroke-linecap="round"/><g stroke-linecap="round"><path d="M262.974,214.37494c-0.35727,-13.86677 -0.76724,-32.60803 -0.57139,-49.21839c0.13389,-11.35617 7.53905,-19.57426 23.76237,-19.68496c6.02191,-0.04109 7.43544,2.61103 7.5577,6.22567c0.25958,7.67444 0.67954,20.64637 0.77077,26.8158c0.26343,17.81485 -10.60657,35.33198 -31.45325,35.87583" data-paper-data="{&quot;index&quot;:null}" fill="url(#color-5)" stroke="url(#color-6)"/><path d="M244.96949,176.32953c0.53496,-20.84691 18.04745,-31.72438 35.86242,-31.46855c6.16947,0.0886 32.80002,-0.54335 32.78323,0.92797c-0.3523,30.88032 -28.05673,31.22142 -32.47054,31.20509c-12.82848,-0.04748 -25.84396,-0.33691 -36.16112,-0.59832" data-paper-data="{&quot;index&quot;:null}" fill="url(#color-7)" stroke="url(#color-8)"/></g><path d="M333.19915,215.06172c-0.1608,-10.31922 -0.3233,-23.3369 -0.24568,-36.16524c0.02671,-4.41376 0.63795,-32.11355 31.52024,-32.1647c1.47141,-0.00244 0.5798,26.62068 0.60824,32.79073c0.0821,17.81661 -10.96562,35.22219 -31.81676,35.55385" data-paper-data="{&quot;index&quot;:null}" fill="url(#color-9)" stroke="url(#color-10)" stroke-linecap="round"/><path d="M421.10796,198.25c0,8.69848 -6.93959,15.75 -15.5,15.75c-8.56041,0 -15.5,-7.05152 -15.5,-15.75c0,-8.69848 6.93959,-15.75 15.5,-15.75c8.56041,0 15.5,7.05152 15.5,15.75z" fill="url(#color-11)" stroke="url(#color-12)" stroke-linecap="butt"/></g></g></g></svg>
